REM DIRINDEX 1\2\4,1\2\5,1\2\6,1\3\7,1\3\8,1\3\9,1\3\10
REM DIRNAME cjc057,folder01,folder02,folder03,folder04,folder05,folder06,folder07,folder08,folder09
TITLE ""
FILE "a_133.mp3" MP3
  TRACK 01 AUDIO
    TITLE "0:"
    INDEX 01 00:00:00
  TRACK 02 AUDIO
    TITLE "4:cjc057_02790"
    INDEX 01 00:00:15
  TRACK 03 AUDIO
    TITLE "0:"
    INDEX 01 00:01:26
  TRACK 04 AUDIO
    TITLE "5:cjc057_02791"
    INDEX 01 00:01:60
  TRACK 05 AUDIO
    TITLE "0:"
    INDEX 01 00:04:11
  TRACK 06 AUDIO
    TITLE "4:cjc057_02792"
    INDEX 01 00:05:22
  TRACK 07 AUDIO
    TITLE "0:"
    INDEX 01 00:06:43
  TRACK 08 AUDIO
    TITLE "5:cjc057_02793"
    INDEX 01 00:07:00
  TRACK 09 AUDIO
    TITLE "0:"
    INDEX 01 00:09:24
  TRACK 10 AUDIO
    TITLE "4:cjc057_02794"
    INDEX 01 00:10:33
  TRACK 11 AUDIO
    TITLE "0:"
    INDEX 01 00:11:52
  TRACK 12 AUDIO
    TITLE "5:cjc057_02795"
    INDEX 01 00:12:11
  TRACK 13 AUDIO
    TITLE "0:"
    INDEX 01 00:14:19
  TRACK 14 AUDIO
    TITLE "4:cjc057_02796"
    INDEX 01 00:15:27
  TRACK 15 AUDIO
    TITLE "0:"
    INDEX 01 00:16:42
  TRACK 16 AUDIO
    TITLE "5:cjc057_02797"
    INDEX 01 00:17:00
  TRACK 17 AUDIO
    TITLE "0:"
    INDEX 01 00:20:08
  TRACK 18 AUDIO
    TITLE "4:cjc057_02798"
    INDEX 01 00:21:17
  TRACK 19 AUDIO
    TITLE "0:"
    INDEX 01 00:22:27
  TRACK 20 AUDIO
    TITLE "5:cjc057_02799"
    INDEX 01 00:22:60
  TRACK 21 AUDIO
    TITLE "0:"
    INDEX 01 00:24:00
  TRACK 22 AUDIO
    TITLE "4:cjc057_02800"
    INDEX 01 00:25:07
  TRACK 23 AUDIO
    TITLE "0:"
    INDEX 01 00:26:09
  TRACK 24 AUDIO
    TITLE "5:cjc057_02801"
    INDEX 01 00:26:42
  TRACK 25 AUDIO
    TITLE "0:"
    INDEX 01 00:27:59
  TRACK 26 AUDIO
    TITLE "4:cjc057_02802"
    INDEX 01 00:28:68
  TRACK 27 AUDIO
    TITLE "0:"
    INDEX 01 00:30:18
  TRACK 28 AUDIO
    TITLE "5:cjc057_02803"
    INDEX 01 00:30:54
  TRACK 29 AUDIO
    TITLE "0:"
    INDEX 01 00:31:59
  TRACK 30 AUDIO
    TITLE "4:cjc057_02804"
    INDEX 01 00:32:70
  TRACK 31 AUDIO
    TITLE "0:"
    INDEX 01 00:34:14
  TRACK 32 AUDIO
    TITLE "5:cjc057_02805"
    INDEX 01 00:34:49
  TRACK 33 AUDIO
    TITLE "0:"
    INDEX 01 00:37:71
  TRACK 34 AUDIO
    TITLE "4:cjc057_02806"
    INDEX 01 00:39:07
  TRACK 35 AUDIO
    TITLE "0:"
    INDEX 01 00:40:15
  TRACK 36 AUDIO
    TITLE "5:cjc057_02807"
    INDEX 01 00:40:46
  TRACK 37 AUDIO
    TITLE "0:"
    INDEX 01 00:44:12
  TRACK 38 AUDIO
    TITLE "4:cjc057_02808"
    INDEX 01 00:45:20
  TRACK 39 AUDIO
    TITLE "0:"
    INDEX 01 00:46:29
  TRACK 40 AUDIO
    TITLE "5:cjc057_02809"
    INDEX 01 00:46:64
  TRACK 41 AUDIO
    TITLE "0:"
    INDEX 01 00:47:60
  TRACK 42 AUDIO
    TITLE "4:cjc057_02810"
    INDEX 01 00:48:69
  TRACK 43 AUDIO
    TITLE "0:"
    INDEX 01 00:49:74
  TRACK 44 AUDIO
    TITLE "5:cjc057_02811"
    INDEX 01 00:50:33
  TRACK 45 AUDIO
    TITLE "0:"
    INDEX 01 00:54:72
  TRACK 46 AUDIO
    TITLE "4:cjc057_02812"
    INDEX 01 00:56:06
  TRACK 47 AUDIO
    TITLE "0:"
    INDEX 01 00:57:09
  TRACK 48 AUDIO
    TITLE "5:cjc057_02813"
    INDEX 01 00:57:43
  TRACK 49 AUDIO
    TITLE "0:"
    INDEX 01 00:59:59
  TRACK 50 AUDIO
    TITLE "4:cjc057_02814"
    INDEX 01 01:00:64
  TRACK 51 AUDIO
    TITLE "0:"
    INDEX 01 01:01:72
  TRACK 52 AUDIO
    TITLE "5:cjc057_02815"
    INDEX 01 01:02:30
  TRACK 53 AUDIO
    TITLE "0:"
    INDEX 01 01:03:39
  TRACK 54 AUDIO
    TITLE "4:cjc057_02816"
    INDEX 01 01:04:50
  TRACK 55 AUDIO
    TITLE "0:"
    INDEX 01 01:05:60
  TRACK 56 AUDIO
    TITLE "5:cjc057_02817"
    INDEX 01 01:06:16
  TRACK 57 AUDIO
    TITLE "0:"
    INDEX 01 01:09:50
  TRACK 58 AUDIO
    TITLE "4:cjc057_02818"
    INDEX 01 01:10:59
  TRACK 59 AUDIO
    TITLE "0:"
    INDEX 01 01:11:60
  TRACK 60 AUDIO
    TITLE "5:cjc057_02819"
    INDEX 01 01:12:19
  TRACK 61 AUDIO
    TITLE "0:"
    INDEX 01 01:14:41
  TRACK 62 AUDIO
    TITLE "4:cjc057_02820"
    INDEX 01 01:15:50
  TRACK 63 AUDIO
    TITLE "0:"
    INDEX 01 01:16:71
  TRACK 64 AUDIO
    TITLE "5:cjc057_02821"
    INDEX 01 01:17:30
  TRACK 65 AUDIO
    TITLE "0:"
    INDEX 01 01:18:72
  TRACK 66 AUDIO
    TITLE "4:cjc057_02822"
    INDEX 01 01:20:06
  TRACK 67 AUDIO
    TITLE "0:"
    INDEX 01 01:21:18
  TRACK 68 AUDIO
    TITLE "5:cjc057_02823"
    INDEX 01 01:21:51
  TRACK 69 AUDIO
    TITLE "0:"
    INDEX 01 01:23:03
  TRACK 70 AUDIO
    TITLE "4:cjc057_02824"
    INDEX 01 01:24:08
  TRACK 71 AUDIO
    TITLE "0:"
    INDEX 01 01:25:21
  TRACK 72 AUDIO
    TITLE "5:cjc057_02825"
    INDEX 01 01:25:55
  TRACK 73 AUDIO
    TITLE "0:"
    INDEX 01 01:26:66
  TRACK 74 AUDIO
    TITLE "4:cjc057_02826"
    INDEX 01 01:28:00
  TRACK 75 AUDIO
    TITLE "0:"
    INDEX 01 01:29:11
  TRACK 76 AUDIO
    TITLE "5:cjc057_02827"
    INDEX 01 01:29:46
  TRACK 77 AUDIO
    TITLE "0:"
    INDEX 01 01:31:41
  TRACK 78 AUDIO
    TITLE "4:cjc057_02828"
    INDEX 01 01:32:49
  TRACK 79 AUDIO
    TITLE "0:"
    INDEX 01 01:33:60
  TRACK 80 AUDIO
    TITLE "5:cjc057_02829"
    INDEX 01 01:34:20
  TRACK 81 AUDIO
    TITLE "0:"
    INDEX 01 01:36:35
  TRACK 82 AUDIO
    TITLE "4:cjc057_02830"
    INDEX 01 01:37:44
  TRACK 83 AUDIO
    TITLE "0:"
    INDEX 01 01:38:47
  TRACK 84 AUDIO
    TITLE "5:cjc057_02831"
    INDEX 01 01:39:06
  TRACK 85 AUDIO
    TITLE "0:"
    INDEX 01 01:41:24
  TRACK 86 AUDIO
    TITLE "4:cjc057_02832"
    INDEX 01 01:42:33
  TRACK 87 AUDIO
    TITLE "0:"
    INDEX 01 01:43:52
  TRACK 88 AUDIO
    TITLE "5:cjc057_02833"
    INDEX 01 01:44:13
  TRACK 89 AUDIO
    TITLE "0:"
    INDEX 01 01:46:00
  TRACK 90 AUDIO
    TITLE "4:cjc057_02834"
    INDEX 01 01:47:05
  TRACK 91 AUDIO
    TITLE "0:"
    INDEX 01 01:48:03
  TRACK 92 AUDIO
    TITLE "5:cjc057_02835"
    INDEX 01 01:48:34
  TRACK 93 AUDIO
    TITLE "0:"
    INDEX 01 01:50:56
  TRACK 94 AUDIO
    TITLE "4:cjc057_02836"
    INDEX 01 01:51:64
  TRACK 95 AUDIO
    TITLE "0:"
    INDEX 01 01:53:02
  TRACK 96 AUDIO
    TITLE "5:cjc057_02837"
    INDEX 01 01:53:37
  TRACK 97 AUDIO
    TITLE "0:"
    INDEX 01 01:55:50
  TRACK 98 AUDIO
    TITLE "4:cjc057_02838"
    INDEX 01 01:56:59
  TRACK 99 AUDIO
    TITLE "0:"
    INDEX 01 01:58:09
  TRACK 100 AUDIO
    TITLE "5:cjc057_02839"
    INDEX 01 01:58:44
  TRACK 101 AUDIO
    TITLE "0:"
    INDEX 01 02:00:63
  TRACK 102 AUDIO
    TITLE "4:cjc057_02840"
    INDEX 01 02:01:70
  TRACK 103 AUDIO
    TITLE "0:"
    INDEX 01 02:03:12
  TRACK 104 AUDIO
    TITLE "5:cjc057_02841"
    INDEX 01 02:03:47
  TRACK 105 AUDIO
    TITLE "0:"
    INDEX 01 02:04:51
  TRACK 106 AUDIO
    TITLE "4:cjc057_02842"
    INDEX 01 02:05:62
  TRACK 107 AUDIO
    TITLE "0:"
    INDEX 01 02:07:00
  TRACK 108 AUDIO
    TITLE "5:cjc057_02843"
    INDEX 01 02:07:31
  TRACK 109 AUDIO
    TITLE "0:"
    INDEX 01 02:09:62
  TRACK 110 AUDIO
    TITLE "4:cjc057_02844"
    INDEX 01 02:10:73
  TRACK 111 AUDIO
    TITLE "0:"
    INDEX 01 02:12:15
  TRACK 112 AUDIO
    TITLE "5:cjc057_02845"
    INDEX 01 02:12:48
  TRACK 113 AUDIO
    TITLE "0:"
    INDEX 01 02:14:63
